<svg width="147" height="29" viewBox="0 0 147 29" fill="none" xmlns="http://www.w3.org/2000/svg">
<path d="M29.2267 23.5093C28.9952 23.1407 28.6925 22.822 28.3363 22.5718C27.9802 22.3216 27.5777 22.1448 27.1525 22.0519C25.5256 21.6735 24.1147 20.6666 23.2279 19.2511C22.3411 17.8355 22.0508 16.1265 22.4202 14.4976C22.5622 13.868 22.515 13.2105 22.2846 12.6076C22.0541 12.0047 21.6507 11.4833 21.1249 11.109C20.5991 10.7347 19.9744 10.5241 19.3293 10.5036C18.6842 10.4831 18.0475 10.6537 17.499 10.9939C16.9505 11.3342 16.5149 11.8289 16.2466 12.4159C15.9784 13.003 15.8896 13.6562 15.9915 14.2936C16.0932 14.9309 16.3811 15.524 16.8189 15.9982C17.2566 16.4725 17.8248 16.8069 18.452 16.9593C19.2633 17.1423 20.0306 17.4837 20.7097 17.9638C21.3889 18.4439 21.9667 19.0533 22.4099 19.7571C22.853 20.461 23.153 21.2454 23.2924 22.0653C23.4319 22.8853 23.4082 23.7247 23.2226 24.5355C23.1127 25.0581 23.1323 25.5998 23.2797 26.1131C23.4271 26.6264 23.6978 27.0959 24.0682 27.4807C24.4386 27.8654 24.8975 28.1538 25.4049 28.3205C25.9123 28.4873 26.4527 28.5274 26.9792 28.4375C27.5057 28.3475 28.0021 28.1301 28.4253 27.8043C28.8485 27.4785 29.1856 27.0542 29.4072 26.5682C29.6288 26.0822 29.7283 25.5495 29.6968 25.0164C29.6653 24.4832 29.504 23.9658 29.2267 23.5093Z" fill="#DFBD56"/>
<path d="M9.09034 19.8738C9.66327 20.1865 10.3165 20.3208 10.9663 20.2596C11.6161 20.1984 12.2327 19.9445 12.7372 19.5304C13.2417 19.1162 13.6109 18.5608 13.7975 17.9354C13.9841 17.31 13.9796 16.6431 13.7845 16.0203C13.5372 15.2261 13.4491 14.3909 13.5253 13.5626C13.6015 12.7343 13.8403 11.9292 14.2283 11.1934C14.6162 10.4577 15.1455 9.80569 15.7859 9.27487C16.4263 8.74405 17.1652 8.34491 17.9601 8.10021C18.5767 7.9071 19.1223 7.5359 19.5284 7.0334C19.9345 6.5309 20.1829 5.9195 20.2423 5.27614C20.3017 4.63278 20.1695 3.98621 19.8623 3.41785C19.5552 2.84945 19.0867 2.38461 18.516 2.08184C17.9452 1.77907 17.2977 1.65185 16.6548 1.71627C16.012 1.78064 15.4025 2.03371 14.9031 2.44369C14.4037 2.85363 14.0368 3.40213 13.8484 4.02014C13.6601 4.63816 13.6587 5.29808 13.8445 5.91685C14.3323 7.51433 14.1673 9.24002 13.3858 10.7162C12.6043 12.1923 11.2698 13.2987 9.67438 13.7932C9.04457 13.9759 8.48408 14.3433 8.06548 14.8481C7.64688 15.3529 7.38943 15.9717 7.3265 16.6244C7.26361 17.2772 7.39809 17.9338 7.71257 18.5092C8.02705 19.0847 8.50702 19.5524 9.09034 19.852V19.8738Z" fill="#DFBD56"/>
<path d="M17.5181 19.3385C17.0826 19.3537 16.6546 19.4558 16.2591 19.6385C15.8636 19.8213 15.5085 20.0811 15.2146 20.4029C14.0746 21.6222 12.4981 22.3406 10.8299 22.401C9.1616 22.4614 7.5373 21.8587 6.31211 20.7249C5.99554 20.4279 5.62311 20.1967 5.21642 20.0449C4.80977 19.8931 4.37697 19.8237 3.94321 19.8406C3.40931 19.8658 2.88964 20.0213 2.42965 20.2935C1.96962 20.5657 1.58327 20.9464 1.30424 21.4023C1.02517 21.8582 0.861978 22.3754 0.828809 22.9089C0.79568 23.4424 0.893582 23.9759 1.11405 24.4628C1.33452 24.9497 1.67078 25.3753 2.09355 25.7024C2.51632 26.0294 3.01269 26.248 3.53937 26.3391C4.06606 26.4302 4.60707 26.391 5.11511 26.2249C5.62319 26.0588 6.08285 25.7709 6.45401 25.3863C7.01864 24.775 7.69829 24.2811 8.45407 23.9329C9.20989 23.5847 10.027 23.3889 10.8585 23.357C11.69 23.3251 12.5197 23.4575 13.3 23.7467C14.0803 24.0359 14.7959 24.4762 15.4057 25.0424C15.8027 25.4012 16.2816 25.6571 16.8004 25.788C17.3193 25.9188 17.8623 25.9206 18.3819 25.793C18.9016 25.6655 19.382 25.4126 19.7814 25.0564C20.1807 24.7002 20.4866 24.2516 20.6725 23.7498C20.8583 23.248 20.9183 22.7083 20.8474 22.178C20.7764 21.6476 20.5765 21.1428 20.2652 20.7075C19.954 20.2722 19.5409 19.9199 19.062 19.6812C18.5831 19.4426 18.053 19.3249 17.5181 19.3385Z" fill="#DFBD56"/>
<path d="M51.9367 23.7213C53.6953 23.7213 54.7914 23.0829 55.225 21.8061C55.3695 21.3243 55.4779 20.71 55.5502 19.9632L54.6107 19.9271C54.4662 21.5893 54.0446 22.4325 53.346 22.4566C52.816 22.4084 52.551 21.8061 52.551 20.6498V13.0975C52.551 10.0863 51.1538 8.23133 48.3593 7.53271C47.6366 7.36408 46.8537 7.27976 46.0105 7.27976C42.7342 7.27976 40.6745 7.99042 39.8314 9.41174C39.6146 9.7731 39.5062 10.1585 39.5062 10.5681C39.5062 11.5076 39.9518 12.0978 40.8432 12.3387C41.06 12.411 41.2888 12.4471 41.5297 12.4471C42.5656 12.4471 43.2642 11.9412 43.6256 10.9294C43.6738 10.7849 43.746 10.544 43.8424 10.2067C44.1074 9.24311 44.4446 8.64086 44.8542 8.39996C45.1192 8.27951 45.4203 8.21928 45.7576 8.21928C46.8898 8.21928 47.5764 8.90585 47.8173 10.279C47.9136 10.7849 47.9618 11.3871 47.9618 12.0858V14.4345C41.7706 14.555 38.663 16.1931 38.6389 19.3489C38.6389 21.493 39.5784 22.8661 41.4575 23.4684C42.0115 23.637 42.6258 23.7213 43.3004 23.7213C45.348 23.7213 46.8537 22.9504 47.8173 21.4086C48.01 21.0955 48.1666 20.7703 48.287 20.433C48.7929 22.5048 50.0095 23.6009 51.9367 23.7213ZM45.1794 22.1675C43.9749 22.1193 43.3606 21.0473 43.3365 18.9515C43.3365 17.3615 43.9869 16.3256 45.2878 15.8438C45.9864 15.627 46.8778 15.4945 47.9618 15.4463V18.9515C47.5041 20.6378 46.7693 21.6736 45.7576 22.0591C45.5407 22.1314 45.348 22.1675 45.1794 22.1675Z" fill="#DFBD56"/>
<path d="M65.8126 22.4204H63.1386V14.6152C63.3072 12.0858 63.9215 10.544 64.9815 9.98991C65.1501 9.91764 65.3067 9.8815 65.4513 9.8815C65.7163 9.8815 66.0053 10.1585 66.3185 10.7126C66.7521 11.4835 67.2219 11.9653 67.7278 12.158C67.9687 12.2303 68.2337 12.2664 68.5228 12.2664C69.4864 12.2664 70.1729 11.8087 70.5825 10.8933C70.727 10.5801 70.7993 10.2549 70.7993 9.91764C70.7993 8.71313 70.2091 7.95429 69.0287 7.64112C68.7396 7.56885 68.4385 7.53271 68.1253 7.53271C66.6317 7.53271 65.3188 8.12292 64.1865 9.30334C63.6806 9.8815 63.2952 10.5078 63.0302 11.1824L62.7773 7.82179H56.4536V8.76131H58.5494V20.5414C58.5494 21.6014 58.1279 22.2036 57.2847 22.3482C57.0438 22.3963 56.7668 22.4204 56.4536 22.4204V23.36H66.6799C66.6799 22.8059 66.5233 22.5048 66.2101 22.4566C66.0897 22.4325 65.9572 22.4204 65.8126 22.4204Z" fill="#DFBD56"/>
<path d="M77.0146 15.5186C77.0146 12.146 77.4241 9.98991 78.2432 9.05039C78.749 8.49632 79.4597 8.21928 80.3751 8.21928C81.9169 8.21928 82.9046 9.00221 83.3382 10.5681C83.6273 11.5799 83.7718 13.1819 83.7718 15.3741C83.7718 18.8912 83.3141 21.1075 82.3987 22.0229C81.8687 22.5288 81.1822 22.7818 80.339 22.7818C78.8454 22.7818 77.8818 22.0109 77.4482 20.4691C77.1591 19.4333 77.0146 17.7831 77.0146 15.5186ZM80.5558 7.27976C77.5927 7.27976 75.3162 8.29155 73.7262 10.3151C72.6181 11.7605 72.064 13.4468 72.064 15.3741C72.064 18.0963 73.0035 20.2523 74.8826 21.8423C76.3762 23.095 78.1588 23.7213 80.2306 23.7213C83.0732 23.7213 85.3016 22.6975 86.9156 20.6498C88.1201 19.108 88.7224 17.3254 88.7224 15.3018C88.7224 12.6037 87.7708 10.4958 85.8677 8.97812C84.3982 7.84588 82.6276 7.27976 80.5558 7.27976Z" fill="#DFBD56"/>
<path d="M97.8646 22.4204H97.2142L97.2503 13.0975C97.3948 11.1944 98.0212 9.95377 99.1293 9.37561C99.4425 9.20698 99.7557 9.12266 100.069 9.12266C100.96 9.12266 101.599 9.67673 101.984 10.7849C102.153 11.3149 102.237 11.9051 102.237 12.5555V20.5414C102.237 21.5291 102.008 22.1193 101.55 22.312C101.334 22.3843 101.032 22.4204 100.647 22.4204V23.36H108.308C108.308 22.8059 108.151 22.5048 107.838 22.4566C107.693 22.4325 107.549 22.4204 107.404 22.4204H106.79V13.1698V12.9169C106.959 10.9174 107.609 9.67673 108.741 9.19493C108.982 9.09857 109.223 9.05039 109.464 9.05039C110.5 9.05039 111.211 9.66469 111.596 10.8933C111.741 11.3992 111.813 11.9533 111.813 12.5555V20.5414C111.813 21.5291 111.584 22.1193 111.126 22.312C110.909 22.3843 110.608 22.4204 110.223 22.4204V23.36H118.462C118.462 22.8059 118.305 22.5048 117.992 22.4566C117.847 22.4325 117.703 22.4204 117.558 22.4204H116.366V12.9891C116.366 10.6283 115.583 8.95403 114.017 7.96633C113.294 7.50862 112.511 7.27976 111.668 7.27976C109.332 7.30385 107.585 8.42405 106.429 10.6403C105.85 8.92994 104.827 7.85793 103.357 7.4243C102.972 7.32794 102.586 7.27976 102.201 7.27976C99.8882 7.30385 98.2019 8.36382 97.1419 10.4597L96.9612 7.82179H90.5291V8.76131H92.625V20.5414C92.625 21.6495 92.107 22.2638 91.0712 22.3843C90.9025 22.4084 90.7219 22.4204 90.5291 22.4204V23.36H98.7318C98.7318 22.8059 98.5753 22.5048 98.2621 22.4566C98.1416 22.4325 98.0091 22.4204 97.8646 22.4204Z" fill="#DFBD56"/>
<path d="M127.929 22.4204H126.592V7.82179H119.907V8.76131H122.003V20.5414C122.003 21.6014 121.581 22.2036 120.738 22.3482C120.497 22.3963 120.22 22.4204 119.907 22.4204V23.36H128.796C128.796 22.8059 128.64 22.5048 128.327 22.4566C128.206 22.4325 128.074 22.4204 127.929 22.4204ZM126.917 3.08807C126.917 2.02811 126.448 1.24518 125.508 0.739282C125.099 0.498381 124.665 0.37793 124.207 0.37793C123.171 0.37793 122.388 0.847688 121.858 1.7872C121.642 2.19674 121.533 2.63036 121.533 3.08807C121.533 4.14804 122.003 4.91893 122.942 5.40073C123.352 5.61754 123.774 5.72595 124.207 5.72595C125.267 5.72595 126.05 5.28028 126.556 4.38894C126.797 3.97941 126.917 3.54579 126.917 3.08807Z" fill="#DFBD56"/>
<path d="M129.7 23.36H135.156V22.4204H132.627L136.963 17.0001L140.576 22.4204H138.589V23.36H146.936C146.936 22.8059 146.744 22.5048 146.358 22.4566C146.262 22.4325 146.153 22.4204 146.033 22.4204H145.31L140.034 14.4707L143.612 9.80923C144.094 9.1588 144.708 8.79744 145.455 8.72517C145.816 8.67699 146.033 8.53245 146.105 8.29155C146.129 8.14701 146.141 7.99042 146.141 7.82179H140.793V8.76131H143.142L139.42 13.5673L136.24 8.76131H138.228V7.82179H129.844V8.76131H131.507L136.421 16.1329L132.157 21.3725C131.651 21.9748 131.037 22.3361 130.314 22.4566C129.977 22.4807 129.784 22.6252 129.736 22.8902C129.712 23.0347 129.7 23.1913 129.7 23.36Z" fill="#DFBD56"/>
</svg>
