<svg width="94" height="29" viewBox="0 0 94 29" fill="none" xmlns="http://www.w3.org/2000/svg">
<path d="M17.6176 6.741C14.0521 6.741 6.90998 3.8506 6.90998 0.284912H6.85719C6.85719 3.13872 7.99083 5.87565 10.0087 7.89363C12.0266 9.91162 14.7635 11.0454 17.6173 11.0455C19.3296 11.0455 20.9718 11.7257 22.1826 12.9365C23.3935 14.1472 24.0737 15.7894 24.0737 17.5017C24.0741 19.214 23.3942 20.8564 22.1836 22.0674C20.973 23.2785 19.331 23.959 17.6187 23.9594C15.9063 23.9597 14.2639 23.2797 13.0529 22.0692C11.8419 20.8586 11.1613 19.2165 11.161 17.5042C11.1609 16.0911 10.8826 14.6918 10.3418 13.3864C9.80096 12.0808 9.0083 10.8946 8.00905 9.89541C7.0098 8.89622 5.82354 8.10364 4.51797 7.56291C3.21242 7.02219 1.81313 6.74391 0.400024 6.74396V6.79634C3.96504 6.79634 6.85545 13.9354 6.85678 17.5016H6.85611C6.8561 19.6299 7.48715 21.7103 8.6695 23.4799C9.85185 25.2494 11.5324 26.6287 13.4986 27.4431C15.4648 28.2577 17.6284 28.4709 19.7158 28.0557C21.8031 27.6406 23.7205 26.6158 25.2255 25.111C26.7303 23.6062 27.7553 21.6889 28.1706 19.6015C28.586 17.5142 28.3729 15.3507 27.5586 13.3843C26.7443 11.4181 25.3652 9.73742 23.5958 8.55491C21.8262 7.3724 19.7458 6.74116 17.6176 6.741Z" fill="#DFBD56"/>
<path d="M38.9107 26.7258C38.9107 27.0598 39.2112 27.3603 39.5451 27.3603H41.2148C41.6155 27.3603 42.1498 27.2267 42.1498 26.7258V16.7749H48.5277V26.7258C48.5277 27.0598 48.8283 27.3603 49.1622 27.3603H51.0656C51.3995 27.3603 51.7 27.0598 51.7 26.7258V14.6377C51.7 14.3038 51.3995 14.0033 51.0656 14.0033H42.1498V9.86262C42.1498 7.55853 43.5523 6.59015 44.9213 6.59015C46.3906 6.59015 48.0936 7.49175 48.3942 7.65871C48.7615 7.85907 49.062 7.89246 49.2624 7.49175L50.0972 5.98909C50.2641 5.72195 50.1974 5.32124 49.9302 5.15427C49.229 4.72017 47.1586 3.65161 44.9213 3.65161C41.6155 3.65161 38.9107 5.88891 38.9107 9.86262V14.0033H37.3412C36.9739 14.0033 36.7068 14.2704 36.7068 14.6377V16.1404C36.7068 16.4743 36.9739 16.7749 37.3412 16.7749H38.9107V26.7258Z" fill="#DFBD56"/>
<path d="M56.0392 26.7258C56.0392 27.0598 56.3398 27.3603 56.6737 27.3603H58.2765C58.8108 27.3603 59.1781 27.2935 59.1781 26.7258V18.2441C59.3117 18.0104 60.2467 16.6079 62.1834 16.6079C62.6175 16.6079 63.1184 16.7415 63.3188 16.8416C63.6193 16.9752 63.9532 16.9084 64.1202 16.5411L64.9216 14.9049C65.2889 14.0033 63.7529 13.6694 62.484 13.6694C60.0463 13.6694 58.8108 15.2722 58.577 15.6061L58.2097 14.4708C58.1429 14.2036 57.8758 14.0033 57.6421 14.0033H56.6737C56.3398 14.0033 56.0392 14.3038 56.0392 14.6377V26.7258Z" fill="#DFBD56"/>
<path d="M66.1908 20.6818C66.1908 24.5219 68.8622 27.6942 72.9027 27.6942C75.14 27.6942 76.8764 26.8594 77.8448 26.0246C78.2455 25.6907 78.1453 25.4235 77.9116 25.1564L76.9766 23.8875C76.7094 23.5535 76.4757 23.6871 76.075 23.9209C75.4071 24.355 74.3052 24.8892 73.103 24.8892C70.9325 24.8892 69.3631 23.1194 69.2629 21.3162H78.3457C78.6462 21.3162 78.9133 21.0825 78.9467 20.7486C78.9801 20.5148 79.0135 20.0807 79.0135 19.847C79.0135 16.274 76.3421 13.6694 72.8693 13.6694C68.8622 13.6694 66.1908 16.9084 66.1908 20.6818ZM69.4299 19.2125C69.6302 17.5429 71.0327 16.2406 72.8359 16.2406C74.4721 16.2406 75.8078 17.6097 75.908 19.2125H69.4299Z" fill="#DFBD56"/>
<path d="M82.2249 26.7258C82.2249 27.0598 82.5255 27.3603 82.8594 27.3603H84.7628C85.0967 27.3603 85.3972 27.0598 85.3972 26.7258V4.61999C85.3972 4.28607 85.0967 3.98554 84.7628 3.98554H82.8594C82.5255 3.98554 82.2249 4.28607 82.2249 4.61999V26.7258Z" fill="#DFBD56"/>
<path d="M91.2613 8.56031C92.3632 8.56031 93.2314 7.6921 93.2314 6.62354C93.2314 5.52159 92.3632 4.65339 91.2613 4.65339C90.1927 4.65339 89.3579 5.52159 89.3579 6.62354C89.3579 7.6921 90.1927 8.56031 91.2613 8.56031ZM89.7252 26.7258C89.7252 27.0598 90.0257 27.3603 90.3597 27.3603H92.263C92.597 27.3603 92.8975 27.0598 92.8975 26.7258V14.6377C92.8975 14.3038 92.597 14.0033 92.263 14.0033H90.3597C90.0257 14.0033 89.7252 14.3038 89.7252 14.6377V26.7258Z" fill="#DFBD56"/>
</svg>
