<svg width="159" height="28" viewBox="0 0 159 28" fill="none" xmlns="http://www.w3.org/2000/svg">
<path d="M153.701 22.1736C153.192 21.6054 152.76 20.9715 152.417 20.2886C151.875 19.2181 151.125 18.2678 150.213 17.4936C149.3 16.7195 148.243 16.137 147.104 15.7807C146.107 15.4705 145.065 15.3388 144.023 15.3916C144.781 15.348 145.528 15.5945 146.113 16.0819C146.698 16.5692 147.079 17.2613 147.179 18.0195C147.453 19.6577 148.174 21.1869 149.261 22.4363C150.348 23.6857 151.759 24.606 153.335 25.0945C155.138 25.6526 157.069 25.6225 158.854 25.0086C156.866 24.6821 155.048 23.682 153.701 22.1736Z" fill="#DFBD56"/>
<path d="M140.92 15.2298C141.152 16.2412 141.56 17.2048 142.126 18.077C141.713 17.4437 141.554 16.6796 141.68 15.9357C141.807 15.1916 142.21 14.5217 142.809 14.058C144.083 13.0124 145.039 11.6365 145.571 10.0835C146.103 8.5305 146.19 6.86135 145.823 5.26196C145.404 3.4323 144.41 1.7822 142.985 0.549805C143.695 2.43272 143.735 4.49974 143.101 6.40884C142.858 7.12957 142.52 7.8153 142.096 8.44828C141.445 9.44262 141.002 10.5564 140.792 11.7238C140.582 12.8912 140.611 14.0884 140.875 15.2448L140.92 15.2298Z" fill="#DFBD56"/>
<path d="M145.362 18.7515C145.025 19.4319 144.447 19.9579 143.745 20.2238C143.042 20.4897 142.267 20.4759 141.574 20.1852C140.046 19.6038 138.39 19.4652 136.79 19.785C135.189 20.1048 133.708 20.8705 132.511 21.9963C131.147 23.2858 130.221 24.9822 129.867 26.841C131.137 25.2753 132.894 24.1963 134.849 23.7822C135.583 23.6296 136.333 23.5704 137.082 23.6062C138.257 23.668 139.431 23.4902 140.537 23.0832C141.643 22.6762 142.657 22.0484 143.52 21.2367C144.275 20.5242 144.902 19.6832 145.372 18.7515H145.362Z" fill="#DFBD56"/>
<path d="M0.129517 26.722H4.38571V16.3577C4.38571 15.2097 4.69978 14.2892 5.32792 13.5961C5.95606 12.9029 6.77914 12.5564 7.79716 12.5564C8.83684 12.5564 9.65992 12.9029 10.2664 13.5961C10.8945 14.2675 11.2086 15.1881 11.2086 16.3577V26.722H15.4648V16.3577C15.4648 15.2097 15.7789 14.2892 16.407 13.5961C17.0351 12.9029 17.8582 12.5564 18.8762 12.5564C19.9159 12.5564 20.739 12.9029 21.3455 13.5961C21.9736 14.2675 22.2877 15.1881 22.2877 16.3577V26.722H26.5439V15.3505C26.5439 14.0293 26.2515 12.8705 25.6667 11.8741C25.1035 10.8561 24.3346 10.0655 23.3599 9.50232C22.3852 8.93916 21.2697 8.65758 20.0134 8.65758C18.8438 8.65758 17.7824 8.89584 16.8294 9.37236C15.898 9.84888 15.1291 10.5637 14.5226 11.5167C14.0027 10.6503 13.2555 9.95718 12.2808 9.43734C11.3277 8.9175 10.2556 8.65758 9.06427 8.65758C7.95961 8.65758 6.97408 8.87418 6.10768 9.30738C5.24128 9.74058 4.58065 10.3904 4.12579 11.2568V9.04746H0.129517V26.722Z" fill="#DFBD56"/>
<path d="M35.5055 27.1119C37.8015 27.1119 39.6426 26.3538 41.0288 24.8376V26.722H45.0576V14.9606C45.0576 13.726 44.7435 12.6322 44.1154 11.6791C43.4873 10.7261 42.6209 9.98967 41.5162 9.46983C40.4332 8.92833 39.1661 8.65758 37.7149 8.65758C35.9387 8.65758 34.3576 9.07995 32.9713 9.92469C31.5851 10.7694 30.632 11.8849 30.1122 13.2712L33.5886 14.9606C33.9135 14.1592 34.4225 13.5202 35.1157 13.0437C35.8088 12.5455 36.621 12.2965 37.5524 12.2965C38.5271 12.2965 39.3069 12.5564 39.8917 13.0762C40.4982 13.5744 40.8014 14.2025 40.8014 14.9606V15.5455L35.538 16.3902C33.4587 16.7368 31.9208 17.3974 30.9245 18.3721C29.9281 19.3468 29.4299 20.5706 29.4299 22.0435C29.4299 23.603 29.9822 24.8376 31.0869 25.7473C32.1916 26.657 33.6644 27.1119 35.5055 27.1119ZM33.8486 21.881C33.8486 20.6464 34.6825 19.8666 36.3503 19.5417L40.8014 18.7945V19.5092C40.8014 20.7222 40.379 21.7511 39.5343 22.5958C38.7112 23.4405 37.6282 23.8629 36.2853 23.8629C35.5705 23.8629 34.9857 23.6896 34.5308 23.3431C34.076 22.9748 33.8486 22.4875 33.8486 21.881Z" fill="#DFBD56"/>
<path d="M48.9914 26.722H53.2476V16.8776C53.2476 15.5346 53.6158 14.495 54.3523 13.7585C55.1104 13.0004 56.0851 12.6214 57.2764 12.6214H58.8034V8.85252H57.7637C56.6807 8.85252 55.7277 9.04746 54.9046 9.43734C54.0815 9.82722 53.4426 10.5312 52.9877 11.5492V9.04746H48.9914V26.722Z" fill="#DFBD56"/>
<path d="M69.6769 26.917C70.3917 26.917 71.0956 26.8628 71.7887 26.7545V23.0831C71.3772 23.1481 70.9982 23.1806 70.6516 23.1806C69.6119 23.1806 68.8538 22.9424 68.3773 22.4658C67.9008 21.9893 67.6625 21.307 67.6625 20.419V12.8488H71.7238V9.04746H67.6625V5.0187H63.4063V6.38328C63.4063 7.24968 63.1681 7.91031 62.6916 8.36517C62.215 8.82003 61.5436 9.04746 60.6772 9.04746H60.3523V12.8488H63.4063V20.6464C63.4063 22.6175 63.9478 24.1553 65.0308 25.26C66.1355 26.3646 67.6842 26.917 69.6769 26.917Z" fill="#DFBD56"/>
<path d="M75.0405 7.06557H79.2967V2.51697H75.0405V7.06557ZM75.0405 26.722H79.2967V9.04746H75.0405V26.722Z" fill="#DFBD56"/>
<path d="M83.2265 26.722H87.4827V16.3577C87.4827 15.2097 87.8076 14.2892 88.4574 13.5961C89.1289 12.9029 89.9952 12.5564 91.0566 12.5564C92.1179 12.5564 92.9735 12.9029 93.6233 13.5961C94.2948 14.2675 94.6305 15.1881 94.6305 16.3577V26.722H98.8867V15.3505C98.8867 14.0293 98.6051 12.8705 98.0419 11.8741C97.4788 10.8561 96.6882 10.0655 95.6702 9.50232C94.6738 8.93916 93.5258 8.65758 92.2262 8.65758C91.1216 8.65758 90.1252 8.87418 89.2372 9.30738C88.3708 9.74058 87.6993 10.3795 87.2228 11.2243V9.04746H83.2265V26.722Z" fill="#DFBD56"/>
<path d="M111.128 27.1119C112.839 27.1119 114.399 26.722 115.807 25.9423C117.215 25.1408 118.341 24.047 119.186 22.6608C120.03 21.2529 120.453 19.6609 120.453 17.8847C120.453 16.1086 120.03 14.5274 119.186 13.1412C118.362 11.755 117.247 10.6611 115.839 9.85971C114.431 9.05829 112.861 8.65758 111.128 8.65758C109.374 8.65758 107.792 9.05829 106.385 9.85971C104.977 10.6611 103.85 11.755 103.006 13.1412C102.182 14.5274 101.771 16.1086 101.771 17.8847C101.771 19.6609 102.182 21.242 103.006 22.6283C103.85 24.0145 104.977 25.1084 106.385 25.9098C107.814 26.7112 109.395 27.1119 111.128 27.1119ZM111.128 23.2131C110.175 23.2131 109.319 22.9857 108.561 22.5308C107.825 22.076 107.24 21.4478 106.807 20.6464C106.395 19.8233 106.19 18.9028 106.19 17.8847C106.19 16.8667 106.395 15.957 106.807 15.1556C107.24 14.3542 107.825 13.726 108.561 13.2712C109.319 12.7946 110.175 12.5564 111.128 12.5564C112.081 12.5564 112.915 12.7946 113.63 13.2712C114.366 13.726 114.94 14.3542 115.352 15.1556C115.785 15.957 116.002 16.8667 116.002 17.8847C116.002 18.9028 115.785 19.8233 115.352 20.6464C114.94 21.4478 114.366 22.076 113.63 22.5308C112.915 22.9857 112.081 23.2131 111.128 23.2131Z" fill="#DFBD56"/>
</svg>
