<svg width="159" height="37" viewBox="0 0 159 37" fill="none" xmlns="http://www.w3.org/2000/svg">
<path d="M35.782 33.116C35.0154 33.116 34.494 32.748 34.218 32.012C33.9727 31.276 33.85 30.54 33.85 29.804C33.85 27.1666 35.2607 23.3793 38.082 18.442C39.8914 15.3446 42.682 11.174 46.454 5.92995C42.3754 6.29795 37.1007 9.51795 30.63 15.5899C25.478 20.466 21.8134 24.652 19.636 28.148C18.9 29.2826 18.532 30.0953 18.532 30.586C18.532 30.8006 18.5934 30.9386 18.716 31C18.8694 31.0613 18.946 31.092 18.946 31.092C18.946 31.1533 18.6547 31.3833 18.072 31.782C17.6427 32.0273 17.106 32.15 16.462 32.15C15.174 32.15 14.622 31.8586 14.806 31.276C15.2354 29.9266 16.6614 27.4426 19.084 23.824C22.2427 19.132 24.2974 15.9273 25.248 14.2099C27.3334 10.4686 28.376 7.50928 28.376 5.33195C28.376 3.79862 27.9927 2.74062 27.226 2.15795C26.49 1.57528 25.4474 1.28395 24.098 1.28395C20.4487 1.28395 16.5694 2.95528 12.46 6.29795C10.7734 7.67795 9.20938 9.21128 7.76804 10.898C6.32671 12.554 5.16138 14.2713 4.27204 16.05C3.38271 17.8286 2.93804 19.5766 2.93804 21.294C2.93804 24.238 4.30271 25.7406 7.03204 25.802C10.8347 25.894 13.702 24.6213 15.634 21.984C16.37 20.972 16.738 20.0213 16.738 19.132C16.738 18.6106 16.5694 18.258 16.232 18.074C16.2014 18.0433 16.186 17.9973 16.186 17.936C16.186 17.8133 16.278 17.752 16.462 17.752C17.2594 17.752 17.658 18.2733 17.658 19.316C17.658 19.96 17.3974 20.7726 16.876 21.754C16.0174 23.226 14.7447 24.3913 13.058 25.25C11.3714 26.1086 9.62338 26.538 7.81404 26.538C5.82071 26.538 4.22604 25.94 3.03004 24.744C1.83404 23.548 1.23604 21.938 1.23604 19.914C1.23604 15.13 4.51738 10.1006 11.08 4.82595C12.184 3.93662 13.5334 3.13928 15.128 2.43395C16.7227 1.72862 18.3634 1.17662 20.05 0.777949C21.7674 0.379284 23.3467 0.179951 24.788 0.179951C26.5974 0.179951 28.0234 0.532618 29.066 1.23795C30.1394 1.91262 30.676 3.09328 30.676 4.77995C30.676 6.95728 29.7867 9.83995 28.008 13.428C27.6094 14.2253 27.1034 15.1453 26.49 16.188C25.8767 17.2306 25.156 18.3806 24.328 19.638C25.2787 18.442 26.8274 16.924 28.974 15.084C32.838 11.8333 36.4107 9.16528 39.692 7.07995C42.9734 4.96395 45.9634 3.41528 48.662 2.43395C48.938 2.31128 49.2447 2.24995 49.582 2.24995C50.7474 2.24995 51.4834 2.90928 51.79 4.22795C51.9434 4.74928 51.2074 5.83795 49.582 7.49395C45.7487 11.4193 42.4367 15.8046 39.646 20.65C37.1007 25.1273 35.828 28.378 35.828 30.402C35.828 31.2606 36.1194 31.69 36.702 31.69C37.07 31.69 37.99 31.368 39.462 30.724C40.75 30.1413 41.5934 29.804 41.992 29.712C42.1454 29.7733 42.222 29.85 42.222 29.942C42.222 30.402 41.4094 31.046 39.784 31.874C38.1894 32.702 36.8554 33.116 35.782 33.116ZM46.7671 28.93C46.0311 28.93 45.2951 28.6693 44.5591 28.148C43.8231 27.6266 43.4091 27.0133 43.3171 26.308C43.0104 23.9466 44.4977 21.1406 47.7791 17.89C51.0297 14.6393 53.9584 13.014 56.5651 13.014C57.2704 13.014 57.8224 13.1826 58.2211 13.52C58.4357 13.7346 58.5891 14.026 58.6811 14.394C58.8037 14.762 58.8957 14.946 58.9571 14.946C59.0797 14.946 59.1871 14.9306 59.2791 14.9C59.3711 14.8386 59.4784 14.808 59.6011 14.808C59.9691 14.808 60.2911 14.946 60.5671 15.222C60.8431 15.498 60.9964 15.7433 61.0271 15.958C61.0577 16.0193 60.0764 17.5373 58.0831 20.512C56.0897 23.4253 55.1851 25.4033 55.3691 26.446C55.5224 27.1513 55.8597 27.504 56.3811 27.504C57.9757 27.504 60.8891 24.8666 65.1211 19.592C65.2131 19.4693 65.3051 19.408 65.3971 19.408C65.5504 19.408 65.6271 19.5153 65.6271 19.73C65.6271 19.9753 65.4891 20.282 65.2131 20.65C61.3184 25.894 58.3284 28.516 56.2431 28.516C55.9671 28.516 55.7064 28.47 55.4611 28.378C54.1117 27.8566 53.4371 26.8446 53.4371 25.342C53.4371 24.8206 53.4984 24.2993 53.6211 23.778L50.7691 26.538C49.9104 27.3966 49.1284 28.01 48.4231 28.378C47.7484 28.746 47.1964 28.93 46.7671 28.93ZM46.3531 27.918C48.1317 27.918 50.5544 25.9706 53.6211 22.076L58.4971 15.36C58.2517 14.9306 57.8531 14.716 57.3011 14.716C55.4304 14.716 52.9004 16.2186 49.7111 19.224C46.3991 22.2906 44.9117 24.8206 45.2491 26.814C45.4024 27.55 45.7704 27.918 46.3531 27.918ZM65.4941 28.976C64.5128 28.976 63.7308 28.746 63.1481 28.286C62.5961 27.7953 62.3201 26.9366 62.3201 25.71C62.3201 25.0046 62.5348 24.1153 62.9641 23.042C63.3934 21.938 63.9301 20.7573 64.5741 19.5C65.2181 18.2426 65.8621 17.0006 66.5061 15.774C66.1074 15.866 65.7548 15.9119 65.4481 15.9119C64.5281 15.9119 64.0681 15.5593 64.0681 14.8539C64.0681 14.5166 64.1908 14.256 64.4361 14.072C64.7121 13.888 64.9574 13.7806 65.1721 13.75C65.1721 13.75 65.2028 13.75 65.2641 13.75C65.3561 13.75 65.4634 13.7346 65.5861 13.704H68.2541C68.8061 12.9986 69.3734 12.2473 69.9561 11.4499C70.7841 10.4073 71.4434 9.79395 71.9341 9.60995H72.0721C72.2868 9.60995 72.5934 9.71728 72.9921 9.93195C73.4828 10.208 73.7281 10.484 73.7281 10.76C73.7281 11.1586 72.9921 12.186 71.5201 13.842C71.7961 13.8726 72.1948 13.8879 72.7161 13.8879C73.2374 13.8879 73.8814 13.8879 74.6481 13.8879C75.0161 13.8879 75.5374 13.8879 76.2121 13.8879C76.9174 13.8879 77.6381 13.8879 78.3741 13.8879C79.1408 13.8573 79.8001 13.842 80.3521 13.842C80.9041 13.8113 81.2108 13.796 81.2721 13.796C81.3641 13.8266 81.4101 13.8726 81.4101 13.934C81.4101 14.21 79.6008 14.578 75.9821 15.038C73.9274 15.314 72.3481 15.5286 71.2441 15.682C70.1708 15.8353 69.5881 15.9273 69.4961 15.958C69.0668 16.326 68.5454 16.9546 67.9321 17.844C67.3188 18.7333 66.7054 19.73 66.0921 20.834C65.4788 21.938 64.9574 22.996 64.5281 24.008C64.1294 24.9893 63.9301 25.756 63.9301 26.308C63.9301 26.7986 64.1141 27.2126 64.4821 27.55C64.8501 27.8566 65.4481 28.01 66.2761 28.01C66.8281 28.01 67.4874 27.8873 68.2541 27.642C69.0208 27.3966 69.7414 27.1206 70.4161 26.814C71.1214 26.4766 71.6274 26.216 71.9341 26.032C72.7314 25.5413 73.6054 24.8973 74.5561 24.1C75.5374 23.272 76.5034 22.3366 77.4541 21.294C77.8834 20.8646 78.1748 20.65 78.3281 20.65C78.4201 20.65 78.4661 20.7113 78.4661 20.834C78.4661 21.0793 78.2361 21.478 77.7761 22.03C77.0401 22.9193 76.2121 23.778 75.2921 24.606C74.4028 25.4033 73.4061 26.1393 72.3021 26.814C71.0448 27.5806 69.8334 28.1326 68.6681 28.47C67.5334 28.8073 66.4754 28.976 65.4941 28.976ZM85.6823 28.93C84.3637 28.93 83.459 28.5926 82.9683 27.918C82.4777 27.2126 82.2323 26.2773 82.2323 25.112C82.2323 23.824 82.631 22.2906 83.4283 20.512C83.735 19.8066 84.057 19.178 84.3943 18.626C84.7317 18.0433 85.0843 17.5066 85.4523 17.016C85.3297 17.0466 85.2223 17.062 85.1303 17.062C85.0383 17.062 84.9463 17.062 84.8543 17.062C84.1183 17.062 83.505 16.5406 83.0143 15.498L79.6103 19.914C77.801 22.2753 76.697 23.456 76.2983 23.456C76.145 23.456 76.0683 23.3946 76.0683 23.272C76.0683 23.1186 76.145 22.9193 76.2983 22.674C76.3903 22.49 76.5743 22.2446 76.8503 21.938C78.0157 20.5886 79.089 19.2546 80.0703 17.936C81.0517 16.6173 81.8643 15.3293 82.5083 14.072C83.2137 11.4039 84.103 10.0699 85.1763 10.0699C85.8817 10.0699 86.2343 10.392 86.2343 11.036C86.2343 11.6186 85.851 12.3853 85.0843 13.336C84.3483 14.2866 83.9803 14.7773 83.9803 14.808C83.9803 15.452 84.4557 15.774 85.4063 15.774C85.9583 15.774 86.5717 15.5746 87.2463 15.176L88.4423 14.44C88.5037 14.4093 88.5957 14.394 88.7183 14.394C89.0863 14.394 89.4083 14.5473 89.6843 14.8539C89.9603 15.1606 90.0523 15.4366 89.9603 15.682L86.7863 19.684C84.8237 22.1986 83.8423 24.2226 83.8423 25.756C83.8423 27.136 84.517 27.826 85.8663 27.826C86.7863 27.826 87.7677 27.55 88.8103 26.998C89.8837 26.446 90.911 25.7713 91.8923 24.974C92.9043 24.146 93.7477 23.3486 94.4223 22.582L95.5263 21.294C95.5877 21.2326 95.6643 21.156 95.7563 21.064C95.8483 20.972 95.925 20.926 95.9863 20.926C96.201 20.926 96.3083 21.0333 96.3083 21.248C96.3083 21.3093 96.2777 21.4166 96.2163 21.57C96.155 21.7233 96.0477 21.892 95.8943 22.076L94.4223 23.732C93.717 24.5293 92.843 25.342 91.8003 26.17C90.7883 26.9673 89.7303 27.6266 88.6263 28.148C87.553 28.6693 86.5717 28.93 85.6823 28.93ZM96.3799 28.792C95.6132 28.792 95.0152 28.4393 94.5859 27.734C94.1565 26.998 93.9419 26.2926 93.9419 25.618C93.9419 23.778 95.2759 21.202 97.9439 17.89C100.643 14.5473 102.82 12.876 104.476 12.876C106.04 12.876 106.822 13.704 106.822 15.36C106.822 15.6053 106.791 15.866 106.73 16.142C106.699 16.418 106.653 16.7093 106.592 17.016C106.653 17.108 106.807 17.154 107.052 17.154C107.88 17.154 108.861 16.8626 109.996 16.28C109.965 16.8013 108.754 17.5526 106.362 18.534C106.699 19.546 105.687 21.478 103.326 24.33C100.903 27.3046 98.8332 28.792 97.1159 28.792H96.3799ZM97.2079 27.412C98.5265 27.412 100.213 26.2006 102.268 23.778C104.261 21.4166 105.258 19.7146 105.258 18.672C104.767 18.396 104.154 17.6906 103.418 16.556C102.375 16.556 100.873 17.8133 98.9099 20.328C96.9779 22.7813 96.0425 24.6673 96.1039 25.986C96.1345 26.9366 96.5025 27.412 97.2079 27.412ZM118.195 28.792C117.459 28.792 117.091 28.378 117.091 27.55C117.429 25.8326 118.119 23.9006 119.161 21.754C119.652 20.7113 120.143 19.684 120.633 18.672C121.155 17.66 121.661 16.6326 122.151 15.5899C121.017 16.3566 119.882 17.2153 118.747 18.166C117.613 19.086 116.509 20.1286 115.435 21.294C114.178 22.6433 112.721 24.376 111.065 26.492C109.869 27.9946 109.179 28.746 108.995 28.746C108.566 28.746 108.213 28.5466 107.937 28.148C107.661 27.7493 107.523 27.412 107.523 27.136C107.523 26.7373 107.876 25.71 108.581 24.054C108.796 23.5326 109.011 23.0266 109.225 22.536C109.471 22.0146 109.701 21.5086 109.915 21.018L107.155 23.916C107.094 23.9773 106.91 24.1613 106.603 24.468C106.297 24.7746 106.051 24.928 105.867 24.928C105.714 24.928 105.637 24.8206 105.637 24.606C105.637 24.5446 105.668 24.468 105.729 24.376C105.76 24.2533 105.852 24.1153 106.005 23.962C106.465 23.502 106.941 23.0113 107.431 22.49C107.922 21.9686 108.428 21.3706 108.949 20.696C109.348 20.1746 109.915 19.408 110.651 18.396C111.418 17.3533 112.353 16.05 113.457 14.486C113.795 14.026 114.27 13.796 114.883 13.796C115.497 13.796 115.803 14.0873 115.803 14.67C115.803 14.8846 115.021 16.3106 113.457 18.948C112.66 20.3586 112.016 21.5086 111.525 22.398C111.065 23.2873 110.774 23.9466 110.651 24.376C111.326 23.64 112.123 22.812 113.043 21.892C113.994 20.972 115.083 19.9446 116.309 18.81C120.081 15.314 122.565 13.5659 123.761 13.5659C124.099 13.5659 124.421 13.6733 124.727 13.8879C125.065 14.1026 125.233 14.3786 125.233 14.716C125.233 14.8693 124.635 15.9886 123.439 18.074C122.274 20.19 121.63 21.4473 121.507 21.846C124.911 18.994 126.613 17.5526 126.613 17.522C129.496 15.2833 131.566 14.164 132.823 14.164C133.191 14.164 133.529 14.2866 133.835 14.5319C134.173 14.7466 134.341 15.0073 134.341 15.314C134.341 15.3753 133.36 16.6633 131.397 19.178C129.373 21.7233 128.239 23.8086 127.993 25.434C127.871 26.538 128.438 27.09 129.695 27.09C130.462 27.09 131.535 26.5993 132.915 25.618C134.295 24.6366 135.737 23.2873 137.239 21.57C137.423 21.3553 137.623 21.156 137.837 20.972C138.052 20.7573 138.236 20.65 138.389 20.65C138.573 20.65 138.665 20.7266 138.665 20.88C138.665 21.0946 138.527 21.34 138.251 21.616C137.454 22.5666 136.503 23.548 135.399 24.56C134.326 25.572 133.253 26.4306 132.179 27.136C131.106 27.8106 130.155 28.148 129.327 28.148C127.242 28.148 126.199 27.182 126.199 25.25C126.199 24.5753 126.383 23.7933 126.751 22.904C127.119 21.984 127.487 21.156 127.855 20.42C128.745 18.7026 129.711 17.1846 130.753 15.866C129.772 16.3566 128.745 17.0006 127.671 17.798C126.629 18.5953 125.54 19.5306 124.405 20.604C121.768 23.18 119.959 25.7866 118.977 28.424C118.824 28.6693 118.563 28.792 118.195 28.792ZM139.441 28.93C138.705 28.93 137.969 28.6693 137.233 28.148C136.497 27.6266 136.083 27.0133 135.991 26.308C135.684 23.9466 137.172 21.1406 140.453 17.89C143.704 14.6393 146.632 13.014 149.239 13.014C149.944 13.014 150.496 13.1826 150.895 13.52C151.11 13.7346 151.263 14.026 151.355 14.394C151.478 14.762 151.57 14.946 151.631 14.946C151.754 14.946 151.861 14.9306 151.953 14.9C152.045 14.8386 152.152 14.808 152.275 14.808C152.643 14.808 152.965 14.946 153.241 15.222C153.517 15.498 153.67 15.7433 153.701 15.958C153.732 16.0193 152.75 17.5373 150.757 20.512C148.764 23.4253 147.859 25.4033 148.043 26.446C148.196 27.1513 148.534 27.504 149.055 27.504C150.65 27.504 153.563 24.8666 157.795 19.592C157.887 19.4693 157.979 19.408 158.071 19.408C158.224 19.408 158.301 19.5153 158.301 19.73C158.301 19.9753 158.163 20.282 157.887 20.65C153.992 25.894 151.002 28.516 148.917 28.516C148.641 28.516 148.38 28.47 148.135 28.378C146.786 27.8566 146.111 26.8446 146.111 25.342C146.111 24.8206 146.172 24.2993 146.295 23.778L143.443 26.538C142.584 27.3966 141.802 28.01 141.097 28.378C140.422 28.746 139.87 28.93 139.441 28.93ZM139.027 27.918C140.806 27.918 143.228 25.9706 146.295 22.076L151.171 15.36C150.926 14.9306 150.527 14.716 149.975 14.716C148.104 14.716 145.574 16.2186 142.385 19.224C139.073 22.2906 137.586 24.8206 137.923 26.814C138.076 27.55 138.444 27.918 139.027 27.918Z" fill="#DFBD56"/>
</svg>
