<svg width="170" height="37" viewBox="0 0 170 37" fill="none" xmlns="http://www.w3.org/2000/svg">
<path d="M19.5312 6.88378L20.8733 5.54169C23.5088 2.90619 27.7994 2.84096 30.4501 5.46128C31.4545 6.45637 32.122 7.7411 32.3588 9.13499C32.5955 10.5289 32.3896 11.9619 31.7701 13.2328C31.4729 13.8399 31.3729 14.5247 31.4836 15.1915C31.5946 15.8582 31.9109 16.4737 32.3886 16.9519C33.267 16.0715 33.9631 15.0267 34.4375 13.8772C34.9119 12.7276 35.1553 11.4958 35.1535 10.2522C35.1516 9.00865 34.905 7.77758 34.4274 6.62937C33.9497 5.48116 33.2504 4.43831 32.3696 3.56041C28.6631 -0.125189 22.6468 -0.0518464 18.9507 3.6441L6.15833 16.4361L5.10668 15.3845C2.42648 12.7043 2.4094 8.32319 5.13688 5.69062C6.14648 4.71917 7.43272 4.08501 8.81808 3.87568C10.2034 3.66635 11.6196 3.89217 12.8712 4.52197C13.4424 4.8147 14.0916 4.91942 14.7259 4.82118C15.3602 4.72293 15.9473 4.42675 16.4032 3.97492L16.4358 3.94248C16.4459 3.9324 16.454 3.92041 16.4595 3.90719C16.465 3.89399 16.4678 3.87982 16.4678 3.86551C16.4678 3.85121 16.465 3.83704 16.4595 3.82384C16.454 3.81063 16.4459 3.79864 16.4358 3.78855C14.6751 2.07209 12.3157 1.10796 9.85679 1.10017C7.39789 1.09237 5.03239 2.04152 3.26087 3.74678C-0.555201 7.43066 -0.541565 13.5566 3.20909 17.3072L15.9976 30.0958L14.6392 31.4543C12.0037 34.0898 7.71285 34.155 5.06233 31.5347C4.05795 30.5396 3.3905 29.2548 3.15372 27.861C2.91695 26.4671 3.12272 25.0341 3.74217 23.7631C4.03935 23.156 4.13951 22.4713 4.02867 21.8046C3.91781 21.1378 3.60147 20.5222 3.12384 20.044C2.24551 20.9245 1.54925 21.9692 1.07483 23.1187C0.600409 24.2684 0.357133 25.5 0.358896 26.7438C0.360659 27.9873 0.607425 29.2184 1.0851 30.3666C1.56278 31.5148 2.26201 32.5577 3.14283 33.4356C6.84913 37.1213 12.8657 37.0482 16.5618 33.352L29.3707 20.5429L30.4263 21.5986C33.0618 24.2341 33.127 28.5247 30.5067 31.1752C29.5117 32.1798 28.2269 32.8471 26.833 33.084C25.4392 33.3208 24.0061 33.1149 22.7352 32.4954C22.1279 32.198 21.4428 32.0978 20.7758 32.2089C20.1088 32.3199 19.4931 32.6365 19.0149 33.1146C19.8953 33.993 20.9401 34.6893 22.0896 35.1637C23.2392 35.6381 24.4709 35.8814 25.7146 35.8797C26.9581 35.8778 28.1893 35.631 29.3374 35.1533C30.4857 34.6756 31.5285 33.9764 32.4064 33.0956C36.0922 29.3893 36.0188 23.3728 32.3229 19.6768L19.5312 6.88378ZM17.9073 28.1853L8.06852 18.3465L17.6208 8.79431L27.4596 18.6331L17.9073 28.1853Z" fill="#DFBD56"/>
<path d="M51.4868 29.9079C49.529 29.9079 48.0323 29.3335 46.9967 28.1847C45.9693 27.0359 45.3948 25.4663 45.2735 23.4761L48.3802 22.6995C48.5339 25.8061 49.5694 27.3595 51.4868 27.3595C53.0402 27.3595 53.8168 26.5828 53.8168 25.0295C53.8168 24.5683 53.7521 24.1436 53.6227 23.7552C53.5013 23.3588 53.3112 22.9988 53.0523 22.6752C52.7934 22.3435 52.5588 22.0806 52.3484 21.8864C52.1381 21.6841 51.8509 21.4374 51.4868 21.1461L47.6035 18.0395C46.8915 17.4812 46.3212 16.7733 45.8924 15.9158C45.4717 15.0501 45.2614 14.0671 45.2614 12.9669C45.2614 11.365 45.7589 10.0908 46.754 9.14421C47.7491 8.19765 49.0678 7.72437 50.7102 7.72437C52.4738 7.72437 53.8735 8.1572 54.909 9.02285C55.9527 9.88042 56.5958 11.098 56.8385 12.6756C56.8628 12.8455 56.8911 13.0801 56.9235 13.3795L53.8168 14.1561C53.8087 14.0186 53.7885 13.8123 53.7561 13.5372C53.6186 12.5502 53.3071 11.7614 52.8217 11.1708C52.3444 10.5721 51.6405 10.2728 50.7102 10.2728C49.9658 10.2728 49.3914 10.4831 48.9869 10.9038C48.5824 11.3164 48.3802 11.8949 48.3802 12.6392C48.3802 13.8608 48.8979 14.8843 49.9335 15.7095L53.8168 18.8161C55.8879 20.4908 56.9235 22.4932 56.9235 24.8232C56.9235 26.417 56.43 27.6629 55.443 28.5609C54.464 29.4589 53.1453 29.9079 51.4868 29.9079Z" fill="#DFBD56"/>
<path d="M63.4159 27.3595C64.2331 27.3595 65.0097 27.1491 65.7459 26.7284V17.1172C65.7136 17.101 65.6327 17.0525 65.5032 16.9716C65.3738 16.8906 65.2807 16.8381 65.2241 16.8138C65.1756 16.7814 65.0906 16.7329 64.9693 16.6682C64.8479 16.6034 64.7468 16.5589 64.6659 16.5347C64.5931 16.5023 64.496 16.47 64.3746 16.4376C64.2614 16.3971 64.1481 16.3688 64.0348 16.3526C63.9297 16.3365 63.8164 16.3284 63.695 16.3284C63.4362 16.3284 63.2056 16.3891 63.0033 16.5104C62.8092 16.6237 62.6474 16.7612 62.5179 16.923C62.3885 17.0848 62.2752 17.3154 62.1781 17.6147C62.0891 17.9141 62.0244 18.181 61.984 18.4157C61.9435 18.6422 61.9111 18.9496 61.8869 19.338C61.8626 19.7182 61.8464 20.0135 61.8383 20.2238C61.8383 20.4342 61.8383 20.7295 61.8383 21.1097C61.8383 21.1259 61.8383 21.138 61.8383 21.1461C61.8383 21.2837 61.8383 21.5062 61.8383 21.8136C61.8383 22.121 61.8383 22.4163 61.8383 22.6995C61.8383 22.9826 61.8383 23.2496 61.8383 23.5004C61.8464 24.0425 61.8707 24.5198 61.9111 24.9324C61.9597 25.3369 62.0365 25.7374 62.1417 26.1338C62.255 26.5221 62.4168 26.8255 62.6271 27.0439C62.8456 27.2543 63.1085 27.3595 63.4159 27.3595ZM65.7459 34.3495V28.2939C65.2848 28.7712 64.8075 29.1596 64.314 29.4589C63.8285 29.7582 63.2703 29.9079 62.6393 29.9079C62.0406 29.9079 61.5066 29.7582 61.0374 29.4589C60.5762 29.1515 60.2041 28.7591 59.9209 28.2818C59.6459 27.8044 59.4153 27.2422 59.2292 26.5949C59.0512 25.9396 58.9258 25.2964 58.853 24.6654C58.7883 24.0344 58.7559 23.3791 58.7559 22.6995V20.3331C58.7559 19.6292 58.7883 18.986 58.853 18.4035C58.9177 17.821 59.0351 17.2466 59.2049 16.6803C59.3748 16.114 59.5973 15.6367 59.8724 15.2483C60.1556 14.8519 60.5277 14.5364 60.9889 14.3018C61.45 14.0591 61.984 13.9377 62.5907 13.9377C62.9386 13.9377 63.2622 13.9862 63.5616 14.0833C63.869 14.1723 64.1602 14.3179 64.4353 14.5202C64.7185 14.7225 64.9369 14.9004 65.0906 15.0542C65.2524 15.1998 65.4709 15.4182 65.7459 15.7095V14.1561H68.8526V34.3495H65.7459Z" fill="#DFBD56"/>
<path d="M73.5611 29.9079C72.8816 29.9079 72.3355 29.6692 71.9229 29.1919C71.5103 28.7065 71.304 28.1078 71.304 27.3959V14.1561H74.4106V26.4493C74.4106 26.7729 74.5077 27.0359 74.7019 27.2381C74.9041 27.4404 75.163 27.5415 75.4785 27.5415C75.6484 27.5415 75.8143 27.5213 75.9761 27.4808C76.1379 27.4404 76.2957 27.3716 76.4494 27.2745C76.6112 27.1693 76.7366 27.0884 76.8256 27.0318C76.9146 26.9671 77.04 26.8619 77.2018 26.7163C77.3717 26.5707 77.4768 26.4817 77.5173 26.4493V14.1561H80.624V29.6895H77.5173V28.0148C77.2099 28.2818 76.9833 28.4759 76.8377 28.5973C76.7002 28.7186 76.4858 28.8845 76.1945 29.0948C75.9033 29.2971 75.6444 29.4468 75.4179 29.5438C75.1994 29.6328 74.9244 29.7137 74.5927 29.7866C74.261 29.8675 73.9171 29.9079 73.5611 29.9079Z" fill="#DFBD56"/>
<path d="M87.5897 27.3595C87.8081 27.3595 88.0185 27.2947 88.2207 27.1653C88.4311 27.0359 88.5888 26.9105 88.694 26.7891C88.7992 26.6677 88.9286 26.5059 89.0823 26.3037C89.1066 26.2632 89.1268 26.2349 89.143 26.2187V21.9228C89.0136 22.0118 88.7992 22.1493 88.4998 22.3354C88.2005 22.5215 87.9618 22.6752 87.7839 22.7966C87.6059 22.9098 87.3915 23.0716 87.1407 23.282C86.8899 23.4842 86.6957 23.6824 86.5582 23.8766C86.4206 24.0627 86.2993 24.2933 86.1941 24.5683C86.0889 24.8434 86.0364 25.1306 86.0364 25.4299C86.0364 26.7163 86.5541 27.3595 87.5897 27.3595ZM86.0364 29.9079C85.1707 29.9079 84.4345 29.5358 83.8277 28.7914C83.229 28.0391 82.9297 27.1936 82.9297 26.2551C82.9297 25.5027 83.0551 24.8191 83.3059 24.2043C83.5648 23.5894 83.8358 23.0999 84.119 22.7359C84.4021 22.3637 84.8754 21.9835 85.5388 21.5951C86.2022 21.1987 86.7038 20.9277 87.0436 20.7821C87.3834 20.6364 87.974 20.3978 88.8154 20.0661C88.961 20.0095 89.0702 19.965 89.143 19.9326V18.8161C89.143 18.0314 89.0338 17.4246 88.8154 16.9958C88.5969 16.5589 88.1884 16.3405 87.5897 16.3405C87.0557 16.3405 86.6714 16.5266 86.4368 16.8987C86.2103 17.2628 86.0808 17.7684 86.0485 18.4157C86.0404 18.5047 86.0364 18.6381 86.0364 18.8161H82.9297C82.9459 17.3275 83.3625 16.1423 84.1796 15.2605C84.9967 14.3786 86.1334 13.9377 87.5897 13.9377C89.0378 13.9377 90.1745 14.3867 90.9997 15.2847C91.833 16.1747 92.2497 17.3518 92.2497 18.8161V25.8061C92.2497 27.4242 92.3832 28.7186 92.6502 29.6895H89.5556L89.143 27.3595C88.9812 27.6831 88.8477 27.9339 88.7425 28.1119C88.6455 28.2899 88.4998 28.5123 88.3057 28.7793C88.1115 29.0382 87.9173 29.2405 87.7232 29.3861C87.529 29.5236 87.2863 29.645 86.995 29.7501C86.7038 29.8553 86.3842 29.9079 86.0364 29.9079Z" fill="#DFBD56"/>
<path d="M94.9316 29.6895V14.1561H98.0383V16.2313C98.3538 15.6164 98.8109 15.0825 99.4096 14.6294C100.016 14.1683 100.688 13.9377 101.424 13.9377C101.448 13.9377 101.614 13.9539 101.922 13.9862V17.4206C101.347 17.194 100.773 17.0808 100.198 17.0808C99.5512 17.0808 99.0293 17.2749 98.6329 17.6633C98.2365 18.0516 98.0383 18.5653 98.0383 19.2045V29.6895H94.9316Z" fill="#DFBD56"/>
<path d="M107.625 29.9079C106.873 29.9079 106.218 29.7785 105.659 29.5196C105.109 29.2607 104.668 28.9249 104.337 28.5123C104.013 28.0916 103.75 27.5577 103.548 26.9105C103.346 26.2551 103.204 25.6039 103.123 24.9567C103.05 24.3013 103.006 23.5409 102.99 22.6752C102.965 21.9956 102.965 21.316 102.99 20.6364C103.014 19.8274 103.066 19.1114 103.147 18.4885C103.236 17.8574 103.386 17.2466 103.596 16.656C103.807 16.0654 104.078 15.58 104.409 15.1998C104.749 14.8195 105.19 14.5162 105.732 14.2896C106.282 14.055 106.921 13.9377 107.65 13.9377C108.313 13.9377 108.895 14.0267 109.397 14.2047C109.907 14.3746 110.327 14.6375 110.659 14.9935C110.999 15.3414 111.278 15.7297 111.496 16.1585C111.723 16.5873 111.893 17.1091 112.006 17.7239C112.119 18.3307 112.196 18.9294 112.237 19.52C112.285 20.1106 112.31 20.7902 112.31 21.5587V21.9228H106.096V22.6995C106.096 22.8046 106.096 22.9705 106.096 23.197C106.08 23.4964 106.076 23.8078 106.084 24.1314C106.1 24.447 106.116 24.7584 106.133 25.0659C106.149 25.3733 106.193 25.6686 106.266 25.9518C106.339 26.2268 106.428 26.4695 106.533 26.6799C106.638 26.8902 106.784 27.0561 106.97 27.1774C107.164 27.2988 107.391 27.3595 107.65 27.3595C107.973 27.3595 108.24 27.2988 108.45 27.1774C108.661 27.048 108.815 26.8579 108.912 26.6071C109.017 26.3563 109.09 26.1055 109.13 25.8547C109.171 25.6039 109.195 25.2884 109.203 24.9081V24.2528H112.285V24.8717C112.212 26.5302 111.804 27.7842 111.06 28.6337C110.315 29.4832 109.171 29.9079 107.625 29.9079ZM106.096 20.3695H109.179V19.435C109.171 19.0224 109.146 18.6624 109.106 18.355C109.065 18.0476 108.993 17.7401 108.887 17.4327C108.79 17.1253 108.637 16.8906 108.426 16.7288C108.216 16.567 107.957 16.4861 107.65 16.4861C107.334 16.4861 107.067 16.5711 106.849 16.741C106.638 16.9109 106.48 17.1576 106.375 17.4812C106.278 17.7968 106.209 18.1082 106.169 18.4157C106.129 18.7231 106.104 19.0912 106.096 19.52V20.3695Z" fill="#DFBD56"/>
<path d="M120.367 29.9079C118.41 29.9079 116.913 29.3335 115.877 28.1847C114.85 27.0359 114.275 25.4663 114.154 23.4761L117.261 22.6995C117.414 25.8061 118.45 27.3595 120.367 27.3595C121.921 27.3595 122.697 26.5828 122.697 25.0295C122.697 24.5683 122.633 24.1436 122.503 23.7552C122.382 23.3588 122.192 22.9988 121.933 22.6752C121.674 22.3435 121.439 22.0806 121.229 21.8864C121.019 21.6841 120.732 21.4374 120.367 21.1461L116.484 18.0395C115.772 17.4812 115.202 16.7733 114.773 15.9158C114.352 15.0501 114.142 14.0671 114.142 12.9669C114.142 11.365 114.64 10.0908 115.635 9.14421C116.63 8.19765 117.948 7.72437 119.591 7.72437C121.354 7.72437 122.754 8.1572 123.79 9.02285C124.833 9.88042 125.476 11.098 125.719 12.6756C125.743 12.8455 125.772 13.0801 125.804 13.3795L122.697 14.1561C122.689 14.0186 122.669 13.8123 122.637 13.5372C122.499 12.5502 122.188 11.7614 121.702 11.1708C121.225 10.5721 120.521 10.2728 119.591 10.2728C118.846 10.2728 118.272 10.4831 117.868 10.9038C117.463 11.3164 117.261 11.8949 117.261 12.6392C117.261 13.8608 117.779 14.8843 118.814 15.7095L122.697 18.8161C124.769 20.4908 125.804 22.4932 125.804 24.8232C125.804 26.417 125.311 27.6629 124.324 28.5609C123.345 29.4589 122.026 29.9079 120.367 29.9079Z" fill="#DFBD56"/>
<path d="M132.248 29.9079C131.026 29.9079 130.136 29.5964 129.578 28.9735C129.028 28.3505 128.745 27.408 128.729 26.1459V16.4861H127.175V14.1561H128.729V8.71947H131.835V14.1561H134.165V16.4861H131.835V25.5513C131.835 26.1742 131.92 26.6313 132.09 26.9226C132.26 27.2138 132.604 27.3595 133.122 27.3595C133.348 27.3595 133.696 27.319 134.165 27.2381V29.7623C133.389 29.8594 132.75 29.9079 132.248 29.9079Z" fill="#DFBD56"/>
<path d="M144.286 28.4517C143.566 29.4225 142.373 29.9079 140.706 29.9079C139.04 29.9079 137.846 29.4225 137.126 28.4517C136.406 27.4808 136.046 26.0812 136.046 24.2528V19.5928C136.046 17.7644 136.406 16.3648 137.126 15.3939C137.846 14.4231 139.04 13.9377 140.706 13.9377C142.373 13.9377 143.566 14.4231 144.286 15.3939C145.006 16.3648 145.366 17.7644 145.366 19.5928V24.2528C145.366 26.0812 145.006 27.4808 144.286 28.4517ZM140.124 27.2624C140.294 27.3271 140.488 27.3595 140.706 27.3595C140.925 27.3595 141.115 27.3271 141.277 27.2624C141.447 27.1977 141.584 27.1208 141.689 27.0318C141.803 26.9347 141.896 26.7972 141.968 26.6192C142.041 26.4331 142.098 26.2713 142.138 26.1338C142.179 25.9963 142.207 25.798 142.223 25.5392C142.24 25.2803 142.248 25.078 142.248 24.9324C142.256 24.7787 142.26 24.5521 142.26 24.2528V19.5928C142.26 19.2935 142.256 19.071 142.248 18.9254C142.248 18.7716 142.24 18.5653 142.223 18.3064C142.207 18.0476 142.179 17.8493 142.138 17.7118C142.098 17.5743 142.041 17.4165 141.968 17.2385C141.896 17.0525 141.803 16.9149 141.689 16.8259C141.584 16.7288 141.447 16.6479 141.277 16.5832C141.115 16.5185 140.925 16.4861 140.706 16.4861C140.488 16.4861 140.294 16.5185 140.124 16.5832C139.962 16.6479 139.825 16.7288 139.711 16.8259C139.606 16.9149 139.517 17.0525 139.444 17.2385C139.372 17.4165 139.315 17.5743 139.274 17.7118C139.234 17.8493 139.206 18.0476 139.189 18.3064C139.173 18.5653 139.161 18.7716 139.153 18.9254C139.153 19.071 139.153 19.2935 139.153 19.5928V24.2528C139.153 24.5521 139.153 24.7787 139.153 24.9324C139.161 25.078 139.173 25.2803 139.189 25.5392C139.206 25.798 139.234 25.9963 139.274 26.1338C139.315 26.2713 139.372 26.4331 139.444 26.6192C139.517 26.7972 139.606 26.9347 139.711 27.0318C139.825 27.1208 139.962 27.1977 140.124 27.2624Z" fill="#DFBD56"/>
<path d="M147.915 29.6895V14.1561H151.022V15.8308C151.483 15.4101 151.859 15.0906 152.15 14.8721C152.441 14.6456 152.842 14.4352 153.352 14.2411C153.869 14.0388 154.419 13.9377 155.002 13.9377C155.665 13.9377 156.203 14.1804 156.616 14.6658C157.029 15.1512 157.235 15.7459 157.235 16.4497V29.6895H154.128V18.0395C154.128 17.4974 154.051 17.105 153.898 16.8623C153.744 16.6115 153.432 16.4861 152.963 16.4861C152.696 16.4861 152.429 16.5428 152.162 16.656C151.903 16.7612 151.709 16.8623 151.58 16.9594C151.45 17.0484 151.264 17.194 151.022 17.3963V29.6895H147.915Z" fill="#DFBD56"/>
<path d="M164.346 29.9079C163.594 29.9079 162.938 29.7785 162.38 29.5196C161.83 29.2607 161.389 28.9249 161.057 28.5123C160.734 28.0916 160.471 27.5577 160.269 26.9105C160.066 26.2551 159.925 25.6039 159.844 24.9567C159.771 24.3013 159.727 23.5409 159.71 22.6752C159.686 21.9956 159.686 21.316 159.71 20.6364C159.735 19.8274 159.787 19.1114 159.868 18.4885C159.957 17.8574 160.107 17.2466 160.317 16.656C160.528 16.0654 160.799 15.58 161.13 15.1998C161.47 14.8195 161.911 14.5162 162.453 14.2896C163.003 14.055 163.642 13.9377 164.37 13.9377C165.034 13.9377 165.616 14.0267 166.118 14.2047C166.628 14.3746 167.048 14.6375 167.38 14.9935C167.72 15.3414 167.999 15.7297 168.217 16.1585C168.444 16.5873 168.614 17.1091 168.727 17.7239C168.84 18.3307 168.917 18.9294 168.958 19.52C169.006 20.1106 169.03 20.7902 169.03 21.5587V21.9228H162.817V22.6995C162.817 22.8046 162.817 22.9705 162.817 23.197C162.801 23.4964 162.797 23.8078 162.805 24.1314C162.821 24.447 162.837 24.7584 162.854 25.0659C162.87 25.3733 162.914 25.6686 162.987 25.9518C163.06 26.2268 163.149 26.4695 163.254 26.6799C163.359 26.8902 163.505 27.0561 163.691 27.1774C163.885 27.2988 164.112 27.3595 164.37 27.3595C164.694 27.3595 164.961 27.2988 165.171 27.1774C165.382 27.048 165.535 26.8579 165.633 26.6071C165.738 26.3563 165.811 26.1055 165.851 25.8547C165.891 25.6039 165.916 25.2884 165.924 24.9081V24.2528H169.006V24.8717C168.933 26.5302 168.525 27.7842 167.781 28.6337C167.036 29.4832 165.891 29.9079 164.346 29.9079ZM162.817 20.3695H165.9V19.435C165.891 19.0224 165.867 18.6624 165.827 18.355C165.786 18.0476 165.713 17.7401 165.608 17.4327C165.511 17.1253 165.357 16.8906 165.147 16.7288C164.937 16.567 164.678 16.4861 164.37 16.4861C164.055 16.4861 163.788 16.5711 163.57 16.741C163.359 16.9109 163.201 17.1576 163.096 17.4812C162.999 17.7968 162.93 18.1082 162.89 18.4157C162.849 18.7231 162.825 19.0912 162.817 19.52V20.3695Z" fill="#DFBD56"/>
</svg>
