<svg width="163" height="33" viewBox="0 0 163 33" fill="none" xmlns="http://www.w3.org/2000/svg">
<path d="M6.23342 11.6887L10.2339 9.38155L8.00089 5.51599H29.0016L18.5046 23.7036L16.2716 19.8313L12.2712 22.1452L18.5046 32.9391L37.0025 0.894897H0L6.23342 11.6887Z" fill="#DFBD56"/>
<path d="M53.5991 27.0672L61.5862 8.11475H57.7686L52.137 21.8688L46.4783 8.11475H42.6608L50.6479 27.0672H53.5991Z" fill="#DFBD56"/>
<path d="M66.1022 8.11475V27.0672H80.2083V23.7099H69.7303V19.1613H78.5838V15.804H69.7303V11.472H80.0729V8.11475H66.1022Z" fill="#DFBD56"/>
<path d="M85.4143 8.11475V27.0672H89.0424V20.3797H93.4556L97.4356 27.0672H101.47L97.1378 19.757C99.3309 18.7823 100.739 16.6975 100.739 14.2337C100.739 12.5009 100.116 11.0388 98.8435 9.87462C97.5981 8.7104 96.0548 8.11475 94.1866 8.11475H85.4143ZM94.1866 11.472C95.784 11.472 96.9483 12.6363 96.9483 14.2337C96.9483 15.8311 95.784 17.0224 94.1866 17.0224H89.0424V11.472H94.1866Z" fill="#DFBD56"/>
<path d="M111.171 11.472V27.0672H114.826V11.472H121.108V8.11475H104.89V11.472H111.171Z" fill="#DFBD56"/>
<path d="M126.048 8.11475V27.0672H140.154V23.7099H129.676V19.1613H138.53V15.804H129.676V11.472H140.019V8.11475H126.048Z" fill="#DFBD56"/>
<path d="M151.073 17.4015L144.033 27.0672H148.392L153.239 20.3797L158.085 27.0672H162.417L155.405 17.4015L162.147 8.11475H157.815L153.239 14.4232L148.663 8.11475H144.304L151.073 17.4015Z" fill="#DFBD56"/>
</svg>
