<svg width="170" height="35" viewBox="0 0 170 35" fill="none" xmlns="http://www.w3.org/2000/svg">
<path d="M5.6422 8.35907L7.60142 9.33867C7.96206 9.49619 8.3545 9.56717 8.74742 9.54591C9.14034 9.52465 9.52283 9.41175 9.86432 9.21622L11.7158 8.0113C12.0344 7.78007 12.2937 7.47663 12.4725 7.12589C12.6513 6.77514 12.7445 6.38702 12.7444 5.99331L12.6269 3.78429C12.584 3.39377 12.4499 3.01873 12.2356 2.68948C12.0211 2.36024 11.7324 2.08594 11.3925 1.88875L9.43329 0.884651C9.07338 0.725269 8.68095 0.652876 8.28783 0.673301C7.89472 0.693725 7.51188 0.80638 7.17039 1.0022L5.31898 2.20712C5.00095 2.43895 4.74204 2.74248 4.56336 3.09313C4.38463 3.44373 4.29108 3.83161 4.29034 4.22512L4.4079 6.43414C4.44595 6.83 4.57776 7.21106 4.79239 7.5458C5.00702 7.88058 5.29836 8.15937 5.6422 8.35907Z" fill="#DFBD56"/>
<path d="M17.4602 11.2192L15.501 10.2151C15.1413 10.0576 14.7496 9.9867 14.3575 10.008C13.9653 10.0292 13.5837 10.1421 13.243 10.3375L11.372 11.5425C11.0551 11.7754 10.797 12.0791 10.6185 12.4296C10.4399 12.7799 10.3456 13.1672 10.3434 13.5605L10.461 15.7695C10.5038 16.16 10.6379 16.5351 10.8522 16.8643C11.0667 17.1936 11.3554 17.4679 11.6952 17.665L13.6545 18.6446C14.0136 18.804 14.4052 18.8764 14.7976 18.856C15.1899 18.8356 15.5718 18.7229 15.9125 18.5271L17.7688 17.3222C18.0858 17.0882 18.3438 16.7836 18.5224 16.4324C18.701 16.0812 18.7952 15.6932 18.7974 15.2993L18.6799 13.0951C18.6349 12.7096 18.5015 12.3397 18.2899 12.0142C18.0783 11.6888 17.7944 11.4167 17.4602 11.2192Z" fill="#DFBD56"/>
<path d="M23.5057 20.5357L21.5465 19.5561C21.1866 19.3967 20.7942 19.3243 20.4011 19.3447C20.0079 19.3651 19.6251 19.4778 19.2836 19.6736L17.4322 20.8786C17.1147 21.1109 16.8562 21.4146 16.6776 21.7651C16.4989 22.1156 16.4051 22.5031 16.4036 22.8966L16.5212 25.1056C16.568 25.4898 16.7029 25.8581 16.9153 26.1817C17.1276 26.5054 17.4118 26.7757 17.7457 26.9717L19.7049 27.9513C20.0655 28.1088 20.4579 28.1798 20.8508 28.1585C21.2438 28.1373 21.6263 28.0244 21.9678 27.8289L23.8241 26.624C24.1413 26.3916 24.3992 26.0878 24.577 25.7372C24.7549 25.3866 24.8476 24.9991 24.8478 24.606L24.7449 22.4361C24.7027 22.0441 24.5684 21.6677 24.353 21.3374C24.1377 21.0072 23.8474 20.7325 23.5057 20.5357Z" fill="#DFBD56"/>
<path d="M9.07077 15.0496L8.97771 13.3303C8.97996 12.9371 9.07415 12.5498 9.25278 12.1994C9.43136 11.849 9.68939 11.5452 10.0063 11.3123L13.6162 8.96618C13.9568 8.77075 14.3385 8.65785 14.7306 8.63659C15.1227 8.61534 15.5144 8.68631 15.8742 8.84373L17.4121 9.62742C17.7721 9.7868 18.1645 9.85924 18.5576 9.83882C18.9508 9.81839 19.3335 9.70569 19.675 9.50987L21.5265 8.30005C21.8442 8.06798 22.1029 7.7644 22.2816 7.4138C22.4603 7.06324 22.554 6.67556 22.5551 6.28206L22.4375 4.07794C22.3954 3.68653 22.2617 3.31051 22.0473 2.98038C21.8328 2.65021 21.5437 2.37518 21.2032 2.17749L19.244 1.1734C18.8834 1.01592 18.491 0.94495 18.098 0.966208C17.7051 0.987465 17.3226 1.10037 16.9811 1.29585L15.0905 2.48117C14.7733 2.71354 14.5154 3.01731 14.3375 3.36791C14.1597 3.71852 14.0669 4.10605 14.0668 4.49917L14.1549 6.21838C14.1548 6.61155 14.062 6.99908 13.8841 7.34968C13.7063 7.70028 13.4483 8.00406 13.1312 8.23637L9.52139 10.5825C9.1799 10.7784 8.79712 10.8911 8.404 10.9115C8.01083 10.9319 7.61845 10.8595 7.25849 10.7001L5.7254 9.9213C5.36545 9.76192 4.97307 9.68953 4.5799 9.70995C4.18678 9.73038 3.804 9.84303 3.46251 10.0389L1.61105 11.2438C1.29302 11.4756 1.03416 11.7791 0.855427 12.1298C0.676697 12.4804 0.583193 12.8683 0.582458 13.2618L0.700011 15.4708C0.741742 15.8623 0.875312 16.2385 1.08975 16.5687C1.30423 16.899 1.59356 17.1739 1.93432 17.3712L3.89354 18.3508C4.25413 18.5084 4.64656 18.5793 5.03948 18.5581C5.4324 18.5368 5.81494 18.4239 6.15643 18.2284L8.00789 17.0235C8.32607 16.7995 8.58767 16.5045 8.77218 16.1619C8.95664 15.8193 9.05887 15.4385 9.07077 15.0496Z" fill="#DFBD56"/>
<path d="M28.4622 13.3943C28.4186 13.0033 28.2843 12.6279 28.07 12.298C27.8557 11.9681 27.5674 11.6927 27.2279 11.4939L25.2687 10.5143C24.908 10.3572 24.5156 10.2864 24.1228 10.3076C23.7299 10.3289 23.3474 10.4416 23.0058 10.6367L21.1543 11.8417C20.8369 12.074 20.5785 12.3777 20.3998 12.7282C20.2211 13.0787 20.1272 13.4662 20.1258 13.8597L20.2188 15.5838C20.2173 15.9771 20.1235 16.3647 19.9448 16.7152C19.7662 17.0657 19.5077 17.3694 19.1902 17.6018L15.5852 19.943C15.2438 20.1385 14.8613 20.2514 14.4683 20.2727C14.0754 20.2939 13.683 20.223 13.3223 20.0655L11.7844 19.2818C11.4246 19.1243 11.033 19.0533 10.6408 19.0746C10.2487 19.0959 9.86702 19.2088 9.52636 19.4042L7.65531 20.6043C7.33846 20.8372 7.08043 21.1409 6.9018 21.4913C6.72321 21.8417 6.62902 22.2289 6.62677 22.6223L6.74427 24.8312C6.78718 25.2218 6.92119 25.5968 7.13558 25.9261C7.35001 26.2553 7.63875 26.5296 7.97863 26.7268L9.93785 27.7309C10.2969 27.8903 10.6885 27.9626 11.0809 27.9422C11.4732 27.9218 11.8552 27.8091 12.1958 27.6133L14.0522 26.4084C14.3688 26.1753 14.6266 25.8714 14.8052 25.5211C14.9838 25.1708 15.0781 24.7836 15.0808 24.3905L14.9877 22.6663C14.9888 22.2728 15.0825 21.8852 15.2612 21.5346C15.4399 21.184 15.6985 20.8804 16.0163 20.6483L19.6212 18.3022C19.9627 18.1064 20.3456 17.9937 20.7387 17.9732C21.1318 17.9528 21.5242 18.0252 21.8841 18.1846L23.4172 18.9634C23.7772 19.1228 24.1696 19.1952 24.5627 19.1748C24.9558 19.1543 25.3386 19.0417 25.6801 18.8459L27.5365 17.6409C27.8533 17.4083 28.1111 17.1045 28.2889 16.754C28.4667 16.4034 28.5596 16.016 28.5602 15.623L28.4622 13.3943Z" fill="#DFBD56"/>
<path d="M35.0392 4.56426H42.3819L45.8259 18.5025L49.2698 4.56426H56.9374L49.9521 26.9174H41.6671L35.0392 4.56426Z" fill="#DFBD56"/>
<path d="M64.1462 27.1773C62.3267 27.1773 60.908 26.5925 59.89 25.4228C58.872 24.2532 58.3629 22.6612 58.3629 20.6468V10.6399H65.2508V20.3544C65.2508 20.8526 65.3808 21.2425 65.6407 21.524C65.9223 21.784 66.2797 21.9139 66.7129 21.9139C67.1461 21.9139 67.5901 21.784 68.045 21.524L68.4024 26.0401C67.9258 26.4084 67.2977 26.6899 66.5179 26.8849C65.7598 27.0798 64.9692 27.1773 64.1462 27.1773ZM61.8069 8.20314C60.7889 8.20314 59.9225 7.88907 59.2077 7.26093C58.5146 6.61113 58.168 5.82054 58.168 4.88916C58.168 3.95778 58.5362 3.17802 59.2727 2.54988C60.0091 1.92174 60.8538 1.60767 61.8069 1.60767C62.8032 1.60767 63.6588 1.93257 64.3736 2.58237C65.11 3.23217 65.4783 4.0011 65.4783 4.88916C65.4783 5.8422 65.11 6.63279 64.3736 7.26093C63.6372 7.88907 62.7816 8.20314 61.8069 8.20314Z" fill="#DFBD56"/>
<path d="M70.2944 10.8673H77.1498V14.1813C77.648 12.9034 78.3194 11.9611 79.1642 11.3547C80.0306 10.7265 81.0378 10.4125 82.1857 10.4125L83.1279 15.7083C81.0702 15.7083 79.554 15.9358 78.5793 16.3906C77.6263 16.8238 77.1498 17.5169 77.1498 18.47V26.9174H70.2944V10.8673Z" fill="#DFBD56"/>
<path d="M93.3392 27.1773C91.5198 27.1773 89.8953 26.8199 88.4657 26.1051C87.0578 25.3903 85.9531 24.4048 85.1517 23.1485C84.372 21.8706 83.9821 20.4085 83.9821 18.7624C83.9821 17.1162 84.3828 15.665 85.1842 14.4087C85.9856 13.1308 87.0903 12.1453 88.4982 11.4521C89.9277 10.759 91.5522 10.4125 93.3717 10.4125C95.2128 10.4125 96.8373 10.7698 98.2452 11.4846C99.6747 12.1777 100.779 13.1524 101.559 14.4087C102.339 15.665 102.729 17.1162 102.729 18.7624C102.729 20.4302 102.328 21.9031 101.527 23.181C100.747 24.4373 99.6423 25.4228 98.2127 26.1376C96.8048 26.8307 95.1803 27.1773 93.3392 27.1773ZM93.4042 22.3038C94.2922 22.3038 95.0178 21.9789 95.581 21.3291C96.1658 20.6576 96.4582 19.8021 96.4582 18.7624C96.4582 17.7227 96.1658 16.878 95.581 16.2282C95.0178 15.5567 94.2922 15.221 93.4042 15.221C92.5161 15.221 91.7797 15.5567 91.1949 16.2282C90.6317 16.878 90.3501 17.7227 90.3501 18.7624C90.3501 19.8021 90.6317 20.6576 91.1949 21.3291C91.7797 21.9789 92.5161 22.3038 93.4042 22.3038Z" fill="#DFBD56"/>
<path d="M114.359 34.3576C113.167 34.3576 112.03 34.2385 110.947 34.0002L111.467 29.1917C112.312 29.3216 113.092 29.3866 113.806 29.3866C115.149 29.3866 116.167 28.9859 116.86 28.1845C117.554 27.4047 117.965 26.0835 118.095 24.2207C116.817 26.0185 114.868 26.9174 112.247 26.9174C110.817 26.9174 109.496 26.5492 108.283 25.8127C107.092 25.0763 106.139 24.0799 105.424 22.8236C104.731 21.5674 104.384 20.1919 104.384 18.6974C104.384 17.1812 104.731 15.795 105.424 14.5387C106.117 13.2607 107.059 12.2536 108.251 11.5171C109.464 10.7807 110.785 10.4125 112.214 10.4125C113.536 10.4125 114.684 10.759 115.658 11.4521C116.655 12.1236 117.304 13.0333 117.608 14.1813V10.4125H124.463V22.7912C124.463 26.5817 123.597 29.4516 121.864 31.401C120.153 33.3721 117.651 34.3576 114.359 34.3576ZM114.359 22.0439C115.225 22.0439 115.972 21.7406 116.601 21.1342C117.229 20.506 117.564 19.7696 117.608 18.9248V18.6649C117.564 17.8418 117.218 17.1162 116.568 16.4881C115.94 15.8599 115.203 15.5459 114.359 15.5459C113.471 15.5459 112.713 15.8708 112.084 16.5206C111.456 17.1487 111.142 17.9068 111.142 18.7949C111.142 19.6829 111.456 20.4519 112.084 21.1017C112.713 21.7298 113.471 22.0439 114.359 22.0439Z" fill="#DFBD56"/>
<path d="M134.935 27.1773C133.527 27.1773 132.206 26.8091 130.971 26.0726C129.758 25.3145 128.784 24.2965 128.047 23.0186C127.311 21.719 126.942 20.2786 126.942 18.6974C126.942 17.1379 127.311 15.73 128.047 14.4737C128.784 13.1958 129.769 12.1994 131.004 11.4846C132.238 10.7698 133.549 10.4125 134.935 10.4125C136.061 10.4125 137.101 10.7265 138.054 11.3547C139.029 11.9828 139.765 12.925 140.263 14.1813V10.4125H147.086V26.9174H140.263V23.8958C139.18 26.0835 137.404 27.1773 134.935 27.1773ZM137.047 22.0439C137.913 22.0439 138.65 21.7406 139.256 21.1342C139.884 20.506 140.22 19.7696 140.263 18.9248V18.6649C140.22 17.7985 139.874 17.0621 139.224 16.4556C138.596 15.8491 137.87 15.5459 137.047 15.5459C136.137 15.5459 135.357 15.8708 134.708 16.5206C134.079 17.1487 133.765 17.9068 133.765 18.7949C133.765 19.7046 134.09 20.4735 134.74 21.1017C135.39 21.7298 136.159 22.0439 137.047 22.0439Z" fill="#DFBD56"/>
<path d="M150.377 10.8673H156.908V14.1813C158.164 11.6687 160.157 10.4125 162.886 10.4125C164.965 10.4125 166.59 11.1597 167.759 12.6543C168.951 14.1271 169.546 16.174 169.546 18.7949V26.9174H162.723V18.1126C162.723 17.1812 162.518 16.4664 162.106 15.9682C161.716 15.4701 161.164 15.221 160.449 15.221C159.929 15.221 159.42 15.3943 158.922 15.7408C158.424 16.0657 158.012 16.5422 157.687 17.1704C157.384 17.7985 157.233 18.5133 157.233 19.3147V26.9174H150.377V10.8673Z" fill="#DFBD56"/>
</svg>
