<svg width="149" height="34" viewBox="0 0 149 34" fill="none" xmlns="http://www.w3.org/2000/svg">
<path d="M28.7726 13.1779L28.7526 13.158C28.7509 13.1568 28.7497 13.1553 28.7489 13.1536L16.2627 0.667114L3.77659 13.1533C3.77515 13.1547 3.77435 13.1567 3.7729 13.1576L3.75229 13.1776C1.843 15.0976 0.63027 17.6007 0.30689 20.2891C-0.016491 22.9775 0.568038 25.6969 1.96755 28.015C3.36706 30.333 5.50125 32.1168 8.03084 33.0826C10.5604 34.0483 13.3403 34.1408 15.9284 33.3452C16.1462 33.2786 16.379 33.2786 16.5968 33.3452C19.1848 34.1405 21.9644 34.048 24.4938 33.0821C27.0233 32.1162 29.1572 30.3326 30.5567 28.0147C31.9561 25.6967 32.5407 22.9775 32.2174 20.2893C31.8942 17.6011 30.6816 15.0979 28.7726 13.1779ZM8.21647 21.4117C8.15569 21.4725 8.10749 21.5448 8.07461 21.6241C8.04172 21.7034 8.0248 21.7885 8.02481 21.8745C8.04703 24.0782 8.66984 26.2341 9.82619 28.1103C9.85246 28.1528 9.8646 28.2026 9.86087 28.2525C9.85715 28.3023 9.83775 28.3497 9.80544 28.3879C9.77315 28.4261 9.72961 28.453 9.68104 28.4649C9.63248 28.4769 9.58139 28.4732 9.53509 28.4543C8.66577 28.0887 7.87603 27.5571 7.21005 26.8895C5.84523 25.5244 5.07795 23.6734 5.07671 21.7431C5.07547 19.8127 5.84038 17.9608 7.20346 16.594L16.2627 7.53565L25.3214 16.594C26.6847 17.9606 27.4499 19.8126 27.4486 21.7431C27.4475 23.6734 26.68 25.5244 25.3151 26.8895C24.6491 27.5571 23.8594 28.0887 22.9903 28.4543C22.9438 28.4732 22.8927 28.4769 22.8442 28.4649C22.7957 28.453 22.7521 28.4259 22.7197 28.3879C22.6875 28.3497 22.668 28.3023 22.6643 28.2523C22.6606 28.2025 22.6727 28.1527 22.6989 28.1101C23.8556 26.2341 24.4787 24.0782 24.5013 21.8745C24.5013 21.7885 24.4842 21.7034 24.4511 21.6239C24.4181 21.5444 24.3697 21.4724 24.3088 21.4116L20.0239 16.8667C19.9812 16.8311 19.9275 16.8116 19.8719 16.8116C19.8164 16.8116 19.7626 16.8311 19.72 16.8667C19.6773 16.9022 19.6486 16.9517 19.6386 17.0063C19.6286 17.061 19.6381 17.1172 19.6655 17.1656C21.3297 20.1771 19.8986 24.5027 17.5122 26.8895L17.4996 26.902C17.1703 27.2279 16.7256 27.4105 16.2623 27.4104C15.799 27.4102 15.3545 27.2272 15.0253 26.9012L15.0137 26.8895C12.6264 24.5027 11.1961 20.1776 12.8606 17.1662C12.8879 17.1179 12.8975 17.0616 12.8875 17.007C12.8776 16.9523 12.8487 16.9028 12.8061 16.8673C12.7635 16.8317 12.7097 16.8122 12.6542 16.8122C12.5986 16.8122 12.5448 16.8317 12.5022 16.8673L8.21647 21.4117Z" fill="#DFBD56"/>
<path d="M59.4905 11.0952H63.6229L59.3365 25.4176H54.6136L52.6116 16.9474L50.5839 25.4176H45.861L41.5746 11.0952H45.9637L48.1968 21.1568L50.4042 11.0952H55.05L57.2574 21.1568L59.4905 11.0952Z" fill="#DFBD56"/>
<path d="M74.3573 20.8745C74.9904 20.2585 75.307 19.3858 75.307 18.2564C75.307 17.1271 74.9904 16.2629 74.3573 15.664C73.7242 15.048 72.9969 14.74 72.1756 14.74C71.3542 14.74 70.627 15.048 69.9939 15.664C69.3607 16.28 69.0442 17.1527 69.0442 18.2821C69.0442 19.4115 69.3607 20.2841 69.9939 20.9002C70.627 21.4991 71.3542 21.7985 72.1756 21.7985C72.9969 21.7985 73.7242 21.4905 74.3573 20.8745ZM66.4774 23.5439C65.2112 22.175 64.578 20.421 64.578 18.2821C64.578 16.1431 65.2112 14.3892 66.4774 13.0203C67.7437 11.6342 69.2837 10.9412 71.0976 10.9412C72.9285 10.9412 74.3317 11.6171 75.307 12.9689V11.0952H79.6961V25.4176H75.307V23.3386C74.2461 24.8444 72.8258 25.5973 71.0462 25.5973C69.2666 25.5973 67.7437 24.9128 66.4774 23.5439Z" fill="#DFBD56"/>
<path d="M81.7301 11.0952H86.4016L89.6613 21.7472L92.9211 11.0952H97.5926L92.5104 25.4176H86.8122L81.7301 11.0952Z" fill="#DFBD56"/>
<path d="M105.703 25.5973C103.615 25.5973 101.904 24.93 100.569 23.5952C99.2347 22.2434 98.5673 20.4553 98.5673 18.2308C98.5673 16.0062 99.2261 14.2352 100.544 12.9176C101.878 11.6 103.598 10.9412 105.703 10.9412C107.808 10.9412 109.553 11.5914 110.939 12.8919C112.325 14.1924 113.018 15.9977 113.018 18.3078C113.018 18.804 112.984 19.266 112.915 19.6938H103.059C103.145 20.3269 103.427 20.8488 103.906 21.2595C104.385 21.6531 104.899 21.8499 105.446 21.8499C106.011 21.8499 106.43 21.7985 106.704 21.6959C106.978 21.5761 107.174 21.4648 107.294 21.3622C107.431 21.2424 107.602 21.0542 107.808 20.7975H112.556C112.145 22.2349 111.324 23.3985 110.092 24.2883C108.86 25.161 107.397 25.5973 105.703 25.5973ZM108.449 16.9474C108.381 16.28 108.09 15.741 107.577 15.3303C107.063 14.9025 106.456 14.6886 105.754 14.6886C105.053 14.6886 104.462 14.9025 103.983 15.3303C103.504 15.741 103.205 16.28 103.085 16.9474H108.449Z" fill="#DFBD56"/>
<path d="M120.226 11.0952V13.7646C121.253 11.8823 122.622 10.9412 124.333 10.9412V15.4073H123.255C122.246 15.4073 121.484 15.6469 120.971 16.126C120.475 16.6051 120.226 17.4436 120.226 18.6414V25.4176H115.837V11.0952H120.226Z" fill="#DFBD56"/>
<path d="M130.72 9.47815C130.224 9.97439 129.616 10.2225 128.898 10.2225C128.179 10.2225 127.571 9.97439 127.075 9.47815C126.579 8.98192 126.331 8.37445 126.331 7.65577C126.331 6.91997 126.579 6.30395 127.075 5.80771C127.571 5.31147 128.179 5.06335 128.898 5.06335C129.616 5.06335 130.224 5.31147 130.72 5.80771C131.216 6.30395 131.464 6.91997 131.464 7.65577C131.464 8.37445 131.216 8.98192 130.72 9.47815ZM126.716 25.4176V11.0952H131.105V25.4176H126.716Z" fill="#DFBD56"/>
<path d="M143.561 20.9258C144.143 20.3098 144.434 19.42 144.434 18.2564C144.434 17.0928 144.134 16.2116 143.535 15.6127C142.937 14.9967 142.226 14.6886 141.405 14.6886C140.584 14.6886 139.874 14.9967 139.275 15.6127C138.693 16.2116 138.402 17.0928 138.402 18.2564C138.402 19.42 138.701 20.3098 139.3 20.9258C139.916 21.5419 140.635 21.8499 141.456 21.8499C142.278 21.8499 142.979 21.5419 143.561 20.9258ZM136.092 23.5696C134.655 22.2178 133.936 20.4382 133.936 18.2308C133.936 16.0234 134.655 14.2609 136.092 12.9433C137.529 11.6086 139.309 10.9412 141.431 10.9412C143.553 10.9412 145.324 11.6086 146.744 12.9433C148.181 14.2609 148.9 16.0234 148.9 18.2308C148.9 20.4382 148.19 22.2178 146.77 23.5696C145.349 24.9214 143.578 25.5973 141.456 25.5973C139.335 25.5973 137.546 24.9214 136.092 23.5696Z" fill="#DFBD56"/>
</svg>
